<?xml version="1.0" standalone="no"?>
<!DOCTYPE svg PUBLIC "-//W3C//DTD SVG 20010904//EN"
 "http://www.w3.org/TR/2001/REC-SVG-20010904/DTD/svg10.dtd">
<svg version="1.0" xmlns="http://www.w3.org/2000/svg"
 width="404.000000pt" height="274.000000pt" viewBox="0 0 404.000000 274.000000"
 preserveAspectRatio="xMidYMid meet">

<g transform="translate(0.000000,274.000000) scale(0.100000,-0.100000)"
fill="#000000" stroke="none">
<path d="M535 2730 c-44 -7 -87 -20 -235 -75 -18 -7 -58 -34 -88 -61 l-55 -48
-37 22 -37 21 5 -47 c2 -26 8 -53 12 -61 4 -8 -2 -34 -16 -60 -12 -25 -26 -57
-30 -71 -6 -23 -6 -24 11 -10 17 14 18 13 11 -10 -3 -14 -9 -47 -11 -75 -5
-53 -2 -48 24 48 l9 32 1 -41 c1 -23 8 -60 16 -83 22 -63 45 -238 45 -343 0
-81 3 -99 21 -122 11 -14 30 -26 42 -26 12 0 31 -7 41 -15 40 -31 130 -8 162
40 14 22 15 31 5 63 -11 34 -9 44 27 133 29 70 51 108 82 139 23 23 45 38 49
33 3 -5 19 -25 34 -45 50 -65 87 -148 87 -197 0 -25 -11 -91 -25 -146 -35
-142 -33 -176 15 -268 l41 -77 -38 -25 c-21 -14 -67 -46 -103 -70 -36 -25 -94
-60 -130 -79 -146 -77 -159 -129 -67 -266 66 -98 116 -192 132 -248 14 -47 61
-102 86 -102 6 0 31 -14 56 -31 34 -24 63 -34 117 -41 128 -17 121 -19 120 28
0 29 -10 57 -32 91 -31 49 -60 66 -127 75 -11 2 -20 9 -20 16 0 7 -6 17 -14
21 -7 5 -10 14 -7 20 4 6 4 11 -1 10 -4 -1 -20 -1 -35 0 -21 1 -28 6 -28 21 0
11 -9 30 -20 42 -10 13 -18 26 -17 30 1 3 -9 18 -22 32 -15 16 -19 26 -11 26
7 0 3 9 -11 23 -14 12 -31 37 -38 55 -17 42 -12 46 78 62 36 7 93 23 125 36
33 13 72 24 87 24 37 0 59 9 59 25 0 7 19 29 43 49 l42 36 -30 0 c-16 0 -67
-5 -112 -11 -45 -7 -90 -9 -100 -5 -16 7 -15 9 9 22 22 12 35 12 71 2 37 -9
49 -9 78 6 35 18 101 14 126 -6 7 -6 19 -8 28 -5 19 8 45 -30 45 -66 0 -28 0
-28 -21 -8 -11 10 -20 22 -19 26 2 10 -21 25 -37 25 -7 0 -17 -10 -24 -21 -10
-20 -9 -21 13 -16 32 8 42 0 68 -56 33 -69 39 -52 54 133 5 72 24 110 60 125
24 10 30 19 33 51 5 54 36 78 143 111 49 16 90 31 90 35 0 4 -15 10 -34 14
-46 8 -102 57 -83 72 10 8 26 7 62 -3 56 -17 89 -19 80 -5 -4 6 -11 8 -16 5
-5 -4 -9 1 -9 9 0 9 8 16 19 16 11 0 22 6 24 13 4 8 8 9 14 2 4 -6 28 -12 53
-14 25 -2 47 -5 49 -7 2 -2 10 1 17 7 8 6 23 7 36 3 53 -18 98 -13 98 10 0 20
42 34 124 42 52 5 76 3 76 -4 0 -6 -4 -14 -10 -17 -36 -22 33 -38 80 -19 17 8
48 15 68 18 64 8 192 92 192 127 0 3 -30 -2 -67 -12 -37 -11 -73 -19 -80 -19
-22 0 -14 14 18 32 16 10 27 13 23 7 -4 -7 -3 -10 3 -8 84 34 155 65 186 81
57 30 57 30 -3 -108 -23 -51 -13 -64 47 -64 36 0 43 3 43 19 0 15 10 20 48 26
57 8 142 3 142 -8 0 -5 6 -5 13 -1 6 4 4 -2 -7 -14 -22 -25 -37 -29 -193 -46
-69 -7 -130 -19 -139 -27 -15 -12 -14 -15 6 -31 35 -28 113 -21 89 8 -7 8 -9
17 -5 21 3 4 54 10 112 14 87 5 111 10 136 29 l30 22 41 -30 c23 -16 42 -38
42 -48 0 -13 6 -18 21 -16 13 2 24 -6 32 -20 15 -31 52 -228 52 -281 0 -23 7
-62 16 -87 9 -25 17 -54 19 -65 5 -38 55 -150 81 -180 22 -27 24 -27 13 -5
-13 29 -5 21 39 -36 18 -23 32 -47 32 -53 0 -6 11 -16 24 -21 20 -7 51 -44 91
-110 5 -8 -15 5 -43 30 -29 24 -69 70 -89 103 -19 32 -37 56 -40 53 -2 -2 16
-35 41 -73 74 -112 194 -216 395 -341 63 -39 119 -68 124 -65 5 3 -23 23 -63
44 -88 46 -100 56 -66 57 15 0 23 -5 19 -11 -3 -5 -1 -7 4 -4 6 4 34 -4 63
-17 28 -13 46 -26 40 -28 -6 -2 13 -13 42 -26 52 -21 52 -21 28 -1 -20 17 -21
19 -5 14 11 -4 36 -13 55 -20 49 -18 69 -7 29 17 -17 10 -30 21 -27 23 4 4 84
-19 128 -37 24 -9 24 -9 7 9 -9 11 -17 22 -17 26 0 9 59 -10 78 -25 15 -12 16
-11 3 5 -7 9 -10 17 -6 17 4 0 2 7 -5 15 -7 8 -9 15 -4 15 4 0 -3 11 -16 25
-29 31 -10 33 43 5 20 -11 45 -20 54 -20 13 0 11 4 -7 13 -14 8 -41 29 -60 49
-19 19 -66 52 -105 73 -88 48 -135 82 -135 99 0 7 -14 23 -31 35 -18 13 -28
17 -24 10 4 -8 -2 -4 -13 8 -12 12 -37 34 -57 48 -83 64 -307 355 -388 504
-15 29 -32 49 -37 46 -6 -3 -10 -40 -10 -82 0 -73 7 -97 12 -40 2 23 18 40 18
20 0 -5 3 -45 7 -90 4 -57 2 -83 -5 -83 -14 0 -23 15 -32 56 -5 19 -4 34 1 34
5 0 9 4 9 10 0 5 -7 7 -15 4 -9 -4 -15 0 -15 7 0 12 -2 12 -9 0 -7 -11 -13 -7
-27 15 -10 16 -26 35 -34 41 -13 11 -13 14 0 22 11 8 14 28 11 93 -1 46 -8 90
-14 98 -7 8 0 6 13 -5 14 -11 28 -24 31 -29 4 -4 9 -4 12 1 3 5 -15 36 -40 68
-45 58 -46 58 -58 34 -7 -13 -11 -38 -8 -55 3 -18 0 -34 -6 -38 -6 -4 -11 -1
-11 8 0 9 -6 13 -13 10 -9 -3 -13 3 -13 18 1 17 -5 22 -24 23 -30 0 -54 20
-44 36 4 8 3 9 -4 5 -7 -4 -12 -2 -12 5 0 8 12 10 40 5 47 -7 93 2 84 16 -4 6
-55 34 -113 62 -59 28 -125 66 -146 84 -57 46 -163 99 -231 115 -45 11 -91 12
-194 6 -74 -4 -151 -8 -170 -9 -26 -1 -30 -3 -16 -9 15 -6 12 -11 -25 -36 -37
-24 -55 -29 -119 -31 -41 -2 -65 -1 -53 2 12 3 25 15 29 27 3 12 12 29 20 38
12 13 0 17 -114 33 -149 21 -132 21 -207 2 -68 -17 -201 -21 -210 -6 -3 6 -17
10 -31 10 -13 0 -24 5 -24 11 0 8 19 9 68 3 77 -10 129 -10 197 1 l48 7 -51
29 c-28 16 -59 40 -69 54 -20 29 -153 128 -161 120 -3 -2 8 -21 23 -42 16 -20
22 -34 14 -31 -8 3 -39 13 -69 23 -30 10 -60 22 -66 26 -6 5 -25 6 -41 3 -23
-4 -36 0 -58 18 l-28 24 23 22 c13 12 27 19 31 16 4 -2 10 0 14 6 4 6 9 8 13
6 4 -2 25 -7 47 -10 22 -4 48 -9 58 -12 16 -5 17 -3 7 15 -6 12 -15 19 -20 16
-6 -3 -7 0 -5 8 3 7 -13 50 -36 96 -88 176 -241 277 -484 318 -116 19 -197 24
-260 13z m748 -388 c-4 -9 -2 -13 4 -9 7 4 10 0 9 -10 -2 -14 -14 -19 -55 -21
-34 -2 -54 -8 -58 -18 -3 -7 -10 -14 -16 -14 -5 0 -3 8 6 18 10 10 17 23 17
28 0 6 7 19 16 30 8 10 13 14 10 7 -16 -31 41 -63 59 -33 3 6 -1 10 -9 10 -9
0 -16 5 -16 11 0 5 -4 8 -8 5 -5 -3 -9 1 -9 7 0 9 10 12 28 9 20 -3 26 -8 22
-20z m-283 -196 c0 -2 -7 -7 -16 -10 -8 -3 -12 -2 -9 4 6 10 25 14 25 6z m205
-76 c8 -13 -5 -13 -25 0 -13 8 -13 10 2 10 9 0 20 -4 23 -10z m-52 -7 c-7 -2
-19 -2 -25 0 -7 3 -2 5 12 5 14 0 19 -2 13 -5z m-110 -40 c-7 -2 -21 -2 -30 0
-10 3 -4 5 12 5 17 0 24 -2 18 -5z m213 -20 c-7 -16 14 -22 42 -12 46 17 20
-7 -36 -34 -77 -36 -140 -36 -111 0 9 10 8 13 -2 14 -8 1 -3 5 11 9 20 7 16 8
-25 10 -27 1 -41 5 -31 7 11 3 15 8 8 12 -6 3 25 6 69 6 58 0 78 -3 75 -12z
m-321 -43 c3 -5 1 -10 -5 -10 -6 0 -27 -12 -46 -27 l-35 -26 7 29 c4 16 9 32
11 37 6 11 61 9 68 -3z m745 -15 c-7 -8 -20 -15 -29 -15 -13 1 -13 3 3 15 26
19 42 19 26 0z m119 -1 c-23 -28 -174 -94 -226 -99 l-48 -4 46 10 c26 6 89 32
140 59 52 26 96 48 98 49 2 0 -3 -6 -10 -15z m341 -30 c0 -8 -6 -14 -14 -14
-8 0 -17 -6 -20 -12 -2 -7 -4 -2 -3 12 3 38 37 52 37 14z m-1011 -42 c12 -12
10 -13 -14 -10 -17 2 -29 10 -31 20 -2 19 21 14 45 -10z m118 -28 c-3 -3 -12
-4 -19 -1 -8 3 -5 6 6 6 11 1 17 -2 13 -5z m71 -25 c2 -5 13 -9 25 -10 12 0
16 -3 10 -6 -16 -6 -81 15 -89 29 -5 7 2 9 22 4 16 -4 31 -12 32 -17z m189 15
c-3 -3 -12 -4 -19 -1 -8 3 -5 6 6 6 11 1 17 -2 13 -5z m-36 -107 c-16 -16 -26
0 -10 19 9 11 15 12 17 4 2 -6 -1 -17 -7 -23z m-372 7 c3 -5 11 -10 16 -10 6
-1 21 -5 35 -9 20 -5 22 -4 10 5 -12 9 -3 10 37 6 35 -3 57 -1 65 8 15 14 88
18 88 5 0 -5 -30 -23 -66 -40 -55 -26 -68 -28 -82 -17 -13 11 -14 11 -7 -1 6
-11 3 -13 -13 -9 -12 4 -22 2 -22 -4 0 -6 11 -8 26 -5 l25 4 -20 -21 c-12 -12
-21 -28 -21 -34 0 -7 -7 -12 -16 -12 -13 0 -15 7 -11 35 7 40 -2 44 -28 15
-10 -11 -26 -20 -37 -20 -11 0 -18 -7 -18 -20 0 -11 -5 -20 -11 -20 -6 0 -9 6
-6 14 3 8 1 17 -6 19 -9 3 -8 8 2 20 12 15 10 17 -16 17 -16 0 -38 -7 -50 -15
-20 -14 -23 -14 -33 2 -8 13 -13 15 -17 5 -4 -10 -8 -10 -19 -1 -18 15 -18 33
-1 26 10 -4 13 2 9 18 -4 25 6 34 52 46 38 10 126 5 135 -7z m584 -30 c-4 -12
-8 -13 -13 -3 -6 8 -24 10 -62 6 -35 -4 -48 -3 -38 3 8 5 38 10 67 10 44 0 51
-3 46 -16z m1265 -299 c-1 -19 -6 -35 -10 -35 -9 0 -10 16 -2 48 9 33 15 27
12 -13z m25 -295 c7 -29 1 -24 -17 11 -12 23 -12 28 -2 20 8 -7 16 -21 19 -31z
m416 -445 c19 -3 61 -23 61 -28 0 -2 -10 -3 -23 -2 -26 0 -115 55 -143 87 -11
13 3 6 33 -15 29 -21 61 -40 72 -42z m396 -55 c3 -6 -1 -7 -9 -4 -18 7 -21 14
-7 14 6 0 13 -4 16 -10z"/>
<path d="M3397 649 c7 -7 15 -10 18 -7 3 3 -2 9 -12 12 -14 6 -15 5 -6 -5z"/>
<path d="M2080 1712 c0 -4 -25 -18 -55 -31 -71 -32 -64 -38 11 -10 69 26 81
34 60 42 -9 4 -16 3 -16 -1z"/>
<path d="M1648 1663 c7 -3 16 -2 19 1 4 3 -2 6 -13 5 -11 0 -14 -3 -6 -6z"/>
<path d="M2775 1652 c-12 -9 -24 -25 -28 -34 -3 -10 -11 -18 -17 -18 -5 0 -10
-7 -10 -15 0 -9 -9 -15 -21 -15 -14 0 -19 -5 -16 -14 4 -10 -8 -18 -38 -26
-24 -7 -56 -25 -71 -41 l-28 -29 31 11 c17 5 34 17 37 24 7 19 69 29 95 16 29
-16 28 -65 -1 -86 -22 -15 -23 -14 -28 12 -4 21 -11 27 -25 25 -24 -5 -55 -31
-55 -47 0 -20 -32 -43 -37 -27 -6 15 -28 15 -56 0 l-22 -12 25 -6 c17 -4 26
-14 28 -30 3 -21 2 -22 -11 -11 -25 20 -45 -23 -48 -105 -2 -45 -8 -76 -17
-84 -12 -11 -14 -8 -10 23 4 39 -6 51 -15 17 -3 -11 -13 -20 -24 -19 -10 0
-13 3 -8 5 12 5 7 84 -5 84 -5 0 -16 7 -25 16 -22 23 -154 22 -218 0 -27 -10
-55 -15 -63 -12 -21 8 -17 0 20 -41 18 -21 46 -69 61 -108 48 -123 72 -159
145 -229 57 -54 77 -80 96 -129 13 -33 24 -67 24 -74 0 -43 -150 -168 -283
-234 -60 -30 -76 -47 -102 -105 -12 -28 -32 -58 -43 -65 -44 -31 -60 -78 -60
-171 l0 -88 31 0 c38 0 106 32 137 65 22 23 26 37 29 99 1 26 2 28 14 13 10
-15 12 -13 13 17 0 24 11 46 34 73 19 21 36 38 39 38 3 1 24 18 45 38 22 20
45 37 52 37 7 0 14 4 16 8 4 10 187 132 197 132 6 0 29 -117 32 -165 6 -91 1
-105 -55 -159 -31 -29 -58 -65 -62 -82 -3 -16 -17 -43 -30 -60 -13 -17 -20
-34 -17 -38 4 -3 50 -6 104 -6 93 0 99 1 114 24 10 15 14 33 10 49 -4 14 -1
36 6 49 l13 23 7 -30 7 -30 1 35 c0 20 5 40 10 45 13 13 15 221 4 259 -5 16
-16 31 -24 34 -11 3 -12 2 0 -6 10 -7 10 -11 1 -17 -8 -5 -9 -10 -2 -14 14 -8
3 -58 -14 -65 -15 -6 -20 19 -5 28 11 7 9 25 -3 45 -6 9 -5 12 0 8 9 -5 12 19
14 98 0 17 -2 78 -6 138 -6 102 -8 109 -35 135 -28 26 -29 31 -29 112 0 109
11 147 60 206 45 55 125 213 140 276 11 48 12 204 2 230 -7 15 -8 15 -27 0z
m-510 -398 c-15 -11 -16 -15 -3 -28 10 -9 20 -11 29 -5 22 13 33 11 20 -5 -7
-8 -12 -42 -13 -75 -1 -44 -5 -61 -14 -61 -8 0 -16 10 -18 23 -12 55 -13 76
-3 70 5 -3 6 4 2 18 -4 13 -12 27 -18 31 -16 10 -39 -3 -33 -18 3 -8 1 -14 -4
-14 -6 0 -10 -8 -10 -17 0 -12 -7 -6 -21 16 -11 18 -18 39 -15 47 6 15 96 45
110 36 5 -3 1 -11 -9 -18z m95 12 c0 -3 -4 -8 -10 -11 -5 -3 -10 -1 -10 4 0 6
5 11 10 11 6 0 10 -2 10 -4z"/>
<path d="M1608 1583 c6 -2 18 -2 25 0 6 3 1 5 -13 5 -14 0 -19 -2 -12 -5z"/>
<path d="M1735 1576 c45 -19 85 -28 85 -17 0 5 -20 14 -44 20 -59 15 -78 13
-41 -3z"/>
<path d="M2060 1580 c-9 -6 -10 -10 -3 -10 6 0 15 5 18 10 8 12 4 12 -15 0z"/>
<path d="M2130 1572 c0 -7 -7 -12 -16 -12 -8 0 -13 -4 -9 -9 3 -5 -11 -15 -30
-21 -19 -6 -35 -15 -35 -20 0 -5 -16 -12 -36 -16 -37 -7 -102 9 -139 33 -22
14 -75 18 -75 5 0 -5 -21 -13 -47 -19 l-48 -10 75 -2 c53 -1 71 -4 60 -11 -11
-7 -1 -10 35 -10 68 0 87 -14 43 -30 -26 -10 -29 -14 -14 -17 53 -14 211 46
211 79 0 9 9 26 19 37 11 12 16 24 13 28 -4 3 -7 1 -7 -5z"/>
<path d="M2648 1573 c7 -3 16 -2 19 1 4 3 -2 6 -13 5 -11 0 -14 -3 -6 -6z"/>
<path d="M2515 1513 c-36 -6 -59 -23 -47 -35 5 -5 29 2 58 16 48 25 47 27 -11
19z"/>
<path d="M2174 1434 c-7 -3 -10 -14 -7 -24 6 -24 -2 -25 -55 -6 -41 15 -57 10
-47 -16 9 -23 57 -38 114 -37 31 1 44 4 29 6 -25 4 -27 7 -23 44 2 21 3 39 2
38 -1 0 -7 -3 -13 -5z"/>
<path d="M1780 1420 l-25 -8 27 -1 c15 -1 30 4 33 9 7 11 0 11 -35 0z"/>
<path d="M1203 1387 c-13 -5 -23 -14 -23 -19 0 -5 -9 -21 -20 -36 -11 -15 -22
-47 -25 -72 l-5 -45 16 50 c9 28 31 66 52 87 39 41 40 51 5 35z"/>
<path d="M2316 1331 c10 -10 21 -17 23 -15 6 6 -20 34 -32 34 -6 0 -2 -8 9
-19z"/>
<path d="M2427 1311 c-3 -13 -1 -18 9 -14 7 2 10 11 7 19 -7 19 -10 18 -16 -5z"/>
<path d="M1850 1289 c-123 -44 -158 -51 -194 -40 -50 15 -179 15 -174 0 8 -23
70 -31 184 -26 95 4 119 9 160 31 27 14 59 26 71 26 12 0 25 5 28 10 4 6 10 8
15 5 4 -3 10 2 14 10 8 21 -8 19 -104 -16z"/>
<path d="M1895 1255 c-22 -13 -35 -24 -30 -25 12 0 75 37 75 45 0 8 -2 7 -45
-20z"/>
<path d="M2421 1264 c0 -11 3 -14 6 -6 3 7 2 16 -1 19 -3 4 -6 -2 -5 -13z"/>
<path d="M1982 1243 c-34 -8 -60 -19 -57 -24 3 -4 -7 -8 -22 -9 -64 0 -73 -2
-68 -11 4 -5 -5 -9 -18 -9 -14 0 -40 -2 -58 -5 -20 -3 -8 4 29 16 34 12 61 24
58 26 -2 2 -37 -3 -77 -11 -41 -8 -105 -18 -143 -22 -112 -11 -52 -25 91 -20
131 4 205 20 303 64 53 24 47 25 -38 5z"/>
<path d="M1172 1105 c0 -16 2 -22 5 -12 2 9 2 23 0 30 -3 6 -5 -1 -5 -18z"/>
<path d="M1014 1084 c18 -90 45 -300 67 -536 8 -83 9 -141 1 -197 -9 -74 -13
-84 -56 -134 -25 -30 -46 -58 -46 -64 0 -5 -15 -33 -34 -63 -19 -30 -32 -59
-29 -64 6 -9 177 -3 204 8 19 8 51 84 42 98 -3 6 1 14 8 19 12 8 12 10 0 18
-10 7 -8 12 10 24 20 15 23 15 34 0 10 -13 13 -12 23 13 19 49 35 123 29 139
-9 22 13 80 24 63 5 -7 9 -8 9 -3 -1 13 -27 47 -33 43 -3 -2 -9 1 -14 6 -5 5
-3 6 5 2 18 -11 15 0 -14 44 -30 45 -31 46 -70 25 -52 -27 -54 -16 -9 46 25
34 45 66 45 73 -1 6 -7 0 -16 -14 -14 -23 -14 -23 -9 -2 4 14 2 22 -7 22 -10
0 -9 3 2 11 13 9 13 10 0 6 -9 -2 -15 -15 -14 -35 0 -54 -22 -45 -36 14 -11
46 -17 54 -37 54 -15 0 -23 6 -23 18 0 14 2 15 10 2 8 -12 10 -10 9 10 -1 14
3 38 10 54 11 26 13 27 34 14 50 -32 52 -30 49 39 -3 55 -7 66 -24 71 -17 4
-19 10 -13 39 7 38 -7 38 -33 1 -8 -11 -19 -17 -25 -15 -11 3 -44 90 -54 140
-3 15 -10 30 -15 33 -6 4 -8 -4 -4 -22z"/>
<path d="M1211 750 c0 -36 2 -41 10 -27 7 12 7 27 0 45 -9 25 -9 24 -10 -18z"/>
<path d="M1169 712 c5 -34 6 -35 9 -8 2 16 0 32 -5 37 -5 5 -7 -7 -4 -29z"/>
<path d="M3480 605 c0 -7 61 -37 66 -33 2 3 -12 12 -31 21 -19 9 -35 15 -35
12z"/>
</g>
</svg>
