<?xml version="1.0" encoding="UTF-8"?>
<svg width="342px" height="239px" viewBox="0 0 342 239" version="1.1" xmlns="http://www.w3.org/2000/svg" xmlns:xlink="http://www.w3.org/1999/xlink">
    <!-- Generator: Sketch 52.6 (67491) - http://www.bohemiancoding.com/sketch -->
    <title>Group 2</title>
    <desc>Created with Sketch.</desc>
    <g id="Page-1" stroke="none" stroke-width="1" fill="none" fill-rule="evenodd">
        <g id="Group-2" fill="#FFFFFF" fill-rule="nonzero">
            <path d="M229.042742,135.379934 L227.646983,137.815775 L224.11753,144.855211 L221.999857,149.782817 L221.999857,154.710423 L222.705748,163.86169 L226.235202,170.197183 L226.941093,187.795775 L231.882328,197.650987 L234,209.618029 L231.882328,219.47324 L230.470546,223.696902 L224.82342,234.960001 C223.587334,236.716844 222.549073,237.783107 221.708638,238.158788 C218.926045,239.402631 216.010865,238.899287 216.010865,238.899287 C216.010865,238.899287 212.719612,239.005525 211.579264,238.158788 C210.109283,237.067291 210.705606,234.960001 210.705606,234.960001 C210.705606,234.960001 210.705606,233.786762 210.705606,231.440283 L213.529169,226.512677 L221.999857,218.769297 L223.411639,212.433804 L223.411639,205.394367 L219.882185,192.723381 L214.235059,194.835212 L210.705606,198.35493 L208.587933,199.058874 L197.293682,203.282536 L196.587791,204.690423 L193.058337,210.321973 C186.661626,216.939124 182.60038,219.989546 180.8746,219.47324 C180.606031,219.392892 178.622169,225.808733 180.222521,230.79316 C181.151952,233.687945 170.519135,239.258134 166.313625,237.775776 C163.277821,236.705715 166.541186,228.754506 165.917038,228.688694 C164.230292,228.510838 171.165873,218.82815 171.061769,217.640251 C170.937866,216.226438 173.564117,212.379124 178.940523,206.098311 L186.705321,200.466761 L202.234917,192.723381 L209.999715,182.164226 L207.882043,175.124789 L205.764371,168.085352 L196.587791,158.934085 C193.690403,156.800864 191.512587,154.689033 190.054345,152.598592 C188.903973,150.949494 187.673513,148.556949 186.362964,145.420957 C197.035792,138.761529 209.153509,135 221.999857,135 C224.373876,135 226.723011,135.128462 229.042742,135.379934 Z" id="Combined-Shape"></path>
            <path d="M232.841121,203.379559 L234,209.878479 L231.884615,219.647959 L230.474359,223.83488 L224.833333,235 C219.192308,235 216.371795,235 216.371795,235 C216.371795,235 210.730769,235 210.730769,235 C210.730769,235 210.730769,233.836967 210.730769,231.5109 L213.551282,226.62616 L222.012821,218.950139 L223.423077,212.669759 L223.423077,205.691559 L220.099815,193.851813 C224.985984,196.344465 229.302729,199.580492 232.841121,203.379559 Z M219.182826,193.396 L214.25641,195.224258 L210.730769,198.713359 L208.615385,199.411179 L197.333333,203.598099 L196.628205,204.993739 L193.102564,210.576299 L179,206.389379 L186.75641,200.806819 L202.269231,193.130798 L205.330208,189 C210.269358,189.834024 214.930874,191.337315 219.182826,193.396 Z" id="Combined-Shape"></path>
            <path d="M224.266375,74 L228.861034,76.6231847 L243.595802,86.4376283 L254.822292,92.0458818 C291.438243,145.32429 317.665851,174.533943 333.505116,179.674842 C357.264015,187.386191 325.243181,196.141215 309.846148,193.528884 C297.620895,191.454691 279.484445,172.791759 265.271612,160.698784 C257.847136,154.381677 251.204656,136.393071 245.344173,106.732967 L243.58007,99.3978075 L241.377564,95.2062877 C241.377564,99.3880273 241.377564,102.88096 241.377564,105.685087 C241.377564,108.489214 240.47978,112.822547 238.684213,118.685086 L233.772624,127.798498 L230.264345,133.406751 L227.457723,138.313973 L223.949445,145.32429 L223.723976,145.849915 C212.277118,117.937796 211.7261,91.5896758 224.266375,74 Z" id="Combined-Shape"></path>
            <path d="M290.056379,140 C308.803206,163.10768 323.271799,176.313512 333.462158,179.617496 C357.341204,187.359715 325.158442,196.149787 309.683547,193.526998 C302.500684,192.309598 293.287504,185.400439 284.018717,177.444635 C284.006266,176.763529 284,176.080099 284,175.394468 C284,162.556224 286.197044,150.489921 290.056379,140 Z" id="Combined-Shape"></path>
            <path d="M101.543964,26 L102.8,28.2424382 L109.8,40.192987 L119.6,48.6286685 L132.9,61.2821907 C137.849922,63.8661936 144.762029,65.4255547 153.636323,65.9602741 C161.391925,66.4275869 177,66.0209553 203.232735,65.4348829 C205.602148,65.3819472 208.991237,66.3409613 213.4,68.3119252 L228.1,76.7476067 L242.8,86.5892351 L254,92.2130227 L247.7,103.460598 L242.8,94.3219431 L237.9,94.3219431 L237.9,108.381412 L237.9,118.926014 L233,128.064669 L229.5,133.688457 L226.7,138.609271 L223.2,145.639005 L221.1,150.55982 L221.1,155.480634 L221.311248,158.238529 C213.908022,159.889798 206.177503,161.15758 198.19179,162 L195.9,159.698475 L184.7,143.530085 L181.9,136.50035 L177,130.173589 L172.8,128.064669 L160.2,131.579536 L155.3,135.094404 L153.2,136.50035 L125.9,135.797377 L117.5,135.797377 L106.3,132.28251 L102.8,132.985483 L99.3,135.094404 L99.3,139.312244 L98.7080716,148.823329 C91.6797804,145.8482 85.1867703,142.472113 79.3287242,138.752965 L76.9,135.094404 L75.0869196,135.922032 C67.8670482,130.855 61.7688988,125.229072 57.0134911,119.172623 L57.3,118.926014 L56.6,111.193306 L51.7,104.866545 L51,93.6189697 L53.1,85.1832882 L54.5,78.1535536 L53.8,71.8267925 L52.4,64.797058 L52.1586678,63.9488071 C61.1832866,48.4021255 78.717605,35.1295466 101.543964,26 Z" id="Combined-Shape"></path>
            <path d="M221.12151,156 C190.927411,110.098829 127.635075,78.4162114 54.342744,78.1161729 L54.3431728,78.1140233 L53.6426225,71.7920577 L52.241522,64.7676513 L52,63.9200435 C61.0317131,48.3851456 78.5798152,35.1226268 101.424118,26 L102.681141,28.2407385 L109.686644,40.1822293 L119.494348,48.6115168 L132.804803,61.2554482 C137.758616,63.8374925 144.676157,65.3956718 153.557427,65.9299858 C161.319126,66.3969444 176.93947,65.9906211 203.192827,65.4049928 C205.564103,65.3520973 208.955855,66.3103845 213.368084,68.2798545 L228.07964,76.7091421 L242.791196,86.5433109 L254,92.1628359 L247.695048,103.401886 L242.791196,94.2701578 L237.887344,94.2701578 L237.887344,108.31897 L237.887344,118.85558 L232.983492,127.987308 L229.480741,133.606833 L226.678539,138.523918 L223.175788,145.548324 L221.074137,150.465408 L221.074137,155.382493 L221.12151,156 Z" id="Combined-Shape"></path>
            <path d="M190,65.3064714 C194.228885,65.2143157 198.81653,65.1113277 203.7814,65.002064 C206.171878,64.9494558 209.591096,65.9025362 214.039054,67.8613051 L228.869742,76.244792 L243.700429,86.0255269 L255,91.6145182 L248.643991,102.792501 L243.700429,93.71039 L238.756866,93.71039 L238.756866,107.682868 L238.756866,118.162227 L233.813304,127.244338 L230.282188,132.833329 L227.457295,137.723697 L223.926179,144.709936 L221.80751,149.600303 L221.80751,154.490671 L222.020636,157.231502 C217.025898,158.328914 211.883496,159.255896 206.615183,160 C208.242803,151.660441 209.095492,143.044791 209.095492,134.230577 C209.095492,109.028467 202.124458,85.4496921 190.00001,65.3064711 Z" id="Combined-Shape"></path>
            <path d="M99.8861977,145.83467 C99.5316121,147.549411 98.6742701,150.53774 97.3141717,154.799655 L97.3141717,179.962406 L97.3141717,187.654135 L100.109018,195.345865 L105,203.037594 L103.602577,213.526316 L99.4103067,214.924812 L99.4103067,221.218045 L93.8206134,226.112782 L91.7244784,235.902256 L88.9296317,237.300752 L76.3528217,238 L73.5579751,235.902256 L79.8463801,225.413534 L87.5322084,217.721805 L88.9296317,199.541353 L88.23092,186.255639 L86.1347851,177.165414 L84.7373617,166.676692 L83.8989077,156.154523 C82.4700546,152.804526 81.5933751,150.191491 81.2688693,148.315419 C81.1609468,147.691484 81.0879925,146.998138 81.0500064,146.235379 C84.3730314,145.426635 87.8283563,145 91.3751225,145 C94.2810195,145 97.125535,145.286386 99.8861977,145.83467 Z M49.0704305,173.649576 L63.0773001,182.06015 L69.3657051,193.24812 L65.8721468,193.947368 L57.4876068,191.849624 L45,186.989604 C45.7980281,182.287144 47.1835221,177.809211 49.0704305,173.649576 Z" id="Combined-Shape"></path>
            <path d="M12.3169063,9.95391681 C65.4125912,18.3873823 106,64.4006821 106,119.898981 C106,123.903371 105.788697,127.858381 105.37664,131.753457 L103.192053,132.190619 L99.6821192,134.297757 L99.6821192,138.512033 C100.201483,141.237553 100.421838,143.229903 100.343183,144.489081 C100.264528,145.74826 99.3421869,149.144228 97.5761589,154.676984 L97.5761589,162.467781 C94.7896492,169.199684 91.3621119,175.598663 87.3697089,181.588512 L86.3443709,177.142896 L84.9403974,166.607206 L84.0980132,156.037919 C82.6624626,152.672921 81.7816739,150.048185 81.455647,148.163712 C81.1296201,146.279238 81.1212256,143.764391 81.4304636,140.619171 L77.218543,134.297757 L69.4966887,137.809653 L59.6688742,137.809653 L54.0529801,142.023929 L44.9271523,144.131067 L35.8013245,145.535826 L36.5033113,150.452481 L41.4172185,160.285792 L42.8211921,163.797689 L45.6291391,171.523861 L63.1788079,182.059551 L69.4966887,193.297621 L65.986755,194 L57.5629139,191.892862 L44.9271523,186.976207 L40.7152318,183.46431 L39.3112583,179.250034 L35.0993377,166.607206 L28.781457,158.178654 L26.6754967,155.369137 L23.1655629,144.833447 L27.3774834,137.107274 L42.8211921,131.48824 L52.6490066,122.357308 L57.5629139,118.143032 L56.8609272,110.41686 L51.9470199,104.095446 L51.2450331,92.8573763 L53.3509934,84.4288243 L54.7549669,77.405031 L54.0529801,71.083617 L52.6490066,64.0598237 L51.2450331,59.1431684 L48.4370861,56.3336511 L45.6291391,53.5241337 L43.5231788,48.6074784 L40.7152318,49.3098577 L39.3112583,52.8217544 L33.6953642,56.3336511 L31.589404,64.0598237 L28.0794702,74.5955137 L27.3774834,81.619307 L20.3576159,87.2383416 L16.1456954,86.5359623 L15.4437086,78.1074103 L8.42384106,76.0002723 L5.61589404,74.5955137 L5.61589404,64.0598237 L4.91390728,52.8217544 L2.10596026,38.7741678 L0.701986755,28.9408571 L1.40397351,16.2980292 L0,12.0837532 L6.31788079,14.1908912 L12.3169063,9.95391681 Z" id="Combined-Shape"></path>
            <path d="M102.79172,93.785406 C104.88819,102.266079 106,111.130674 106,120.252994 C106,122.709191 105.919398,125.146704 105.760676,127.563069 C99.1719298,131.597868 90.1746815,135.130023 79.4149422,137.943565 L77.148956,134.570125 L69.4084321,138.062108 L59.5568561,138.062108 L53.9273841,142.252487 L49.0144694,143.377718 C40.7608559,144.284351 32.0343185,144.842468 22.9906096,145 L27.1873921,137.363711 L42.6684401,131.776538 L52.5200161,122.697383 L57.4458041,118.507003 L56.7421201,110.82464 L51.8163321,104.539071 L51.1126481,93.3647253 L53.2237001,84.983966 L54.1700542,80.2877492 C74.3969428,82.930115 91.4285917,87.704949 102.79172,93.785406 Z M27.59333,78.1615021 L27.1873921,82.1903796 L20.1505521,87.7775524 L15.9284481,87.0791558 L15.2247641,78.6983966 L13,78.0359823 C14.5535881,78.0120817 16.1164027,78 17.6876581,78 C21.0302703,78 24.3346829,78.0546772 27.59333,78.1615021 Z" id="Combined-Shape"></path>
            <path d="M2.25445727,13.3404569 L6.19475962,14.6511628 L18.0799119,6.27906977 L36.9563301,0 L60.7266346,0 L84.4969391,6.27906977 L96.3820914,16.744186 L102.674231,27.9069767 L109.665497,39.7674419 L118,46.8964629 C105.731442,54.9757011 88.5211591,60 69.4657172,60 C62.6170588,60 56.0067459,59.3509944 49.7785389,58.1444124 L48.1423558,56.5116279 L45.3458494,53.7209302 L43.2484696,48.8372093 L40.4519631,49.5348837 L39.0537099,53.0232558 L36.579818,54.5662266 C15.9481162,47.2271069 2,33.1960024 2,17.0930233 C2,15.828649 2.08599127,14.5770481 2.25445727,13.3404569 Z" id="Combined-Shape"></path>
            <path d="M38.5206542,-1.0658141e-14 C36.6170587,6.48801669 35.5580769,13.6830387 35.5580769,21.2568072 C35.5580769,31.6119304 37.5376656,41.2590508 40.9489579,49.3591985 L40.4519631,49.4830594 L39.0537099,52.9677818 L36.579818,54.5091384 C15.9481162,47.177697 2,33.1612721 2,17.0751402 C2,15.8120888 2.08599127,14.5617973 2.25445727,13.3264998 L6.19475962,14.6358345 L18.0799119,6.27250048 L36.9563301,0 L38.5206542,0 Z M103.045434,28.5068551 L109.665497,39.7258364 L118,46.8473989 C111.318881,51.2425268 103.172247,54.7326321 94.0601892,57 C98.8066558,49.3442593 102.044757,39.4744117 103.045434,28.5068551 Z" id="Combined-Shape"></path>
            <path d="M65.0596612,1 L84.3442087,6.08895835 L96.2835418,16.5911093 L102.604365,27.7934037 L109.627502,39.6958415 L118,46.8500912 C105.675513,54.9579207 88.3867739,60 69.2444639,60 C63.6450922,60 58.204319,59.5685807 53,58.7552066 C63.3353971,48.7893486 69.5956208,35.7556707 69.5956208,21.4921131 C69.5956208,14.2661039 67.9889342,7.35574327 65.0596612,1 Z" id="Combined-Shape"></path>
            <path d="M109,37.6864798 C85.0715832,39.9557021 64.9622117,48.0101622 54.0860187,59 C54.0573386,58.9954965 54.0286657,58.9909811 54,58.986454 C64.2690157,48.9806935 70.4890318,35.8948297 70.4890318,21.5741619 C70.4890318,14.3192203 68.8926645,7.38119117 65.9822054,1 L85.1428937,6.10933414 L97.0055438,16.6535349 L103.28577,27.9006824 L109,37.6864798 Z" id="Combined-Shape"></path>
            <path d="M11.1400815,35.8280185 C12.637066,34.7239938 13.9095195,34.7239938 14.9574421,35.8280185 C16.3475193,38.3770691 16.3475193,40.1734623 14.9574421,41.2171981 C13.5673648,42.260934 11.582569,42.260934 9.00305442,41.2171981 C8.99389518,42 8.89460468,37.4840556 11.1400815,35.8280185 Z" id="Path"></path>
        </g>
    </g>
</svg>