<?xml version="1.0" standalone="no"?>
<!DOCTYPE svg PUBLIC "-//W3C//DTD SVG 20010904//EN"
 "http://www.w3.org/TR/2001/REC-SVG-20010904/DTD/svg10.dtd">
<svg version="1.0" xmlns="http://www.w3.org/2000/svg"
 width="404.000000pt" height="274.000000pt" viewBox="0 0 404.000000 274.000000"
 preserveAspectRatio="xMidYMid meet">
<metadata>
Created by potrace 1.15, written by Peter Selinger 2001-2017
</metadata>
<g transform="translate(0.000000,274.000000) scale(0.100000,-0.100000)"
fill="#000000" stroke="none">
<path d="M549 2729 c-60 -8 -158 -39 -260 -83 -19 -8 -58 -35 -85 -60 l-50
-44 -32 20 -32 20 0 -37 c0 -20 5 -45 11 -56 8 -16 6 -29 -10 -60 -11 -21 -18
-39 -15 -39 2 0 -1 -10 -7 -22 -11 -21 -11 -22 4 -9 15 12 16 10 11 -20 -5
-31 -4 -32 8 -14 12 18 14 13 19 -45 4 -36 16 -114 27 -173 13 -61 22 -153 23
-215 2 -125 9 -148 46 -163 16 -6 42 -18 60 -26 43 -21 94 -10 138 29 34 29
45 61 25 73 -18 11 -10 52 27 142 27 65 48 100 81 132 l46 44 29 -34 c15 -19
38 -52 49 -74 26 -51 27 -52 39 -35 7 12 9 11 7 -5 0 -11 0 -47 1 -80 l2 -60
15 29 c12 22 18 26 25 15 5 -9 0 -22 -16 -39 -16 -16 -32 -55 -45 -103 -41
-161 -37 -202 23 -301 l31 -49 -30 -24 c-50 -42 -186 -131 -255 -167 -135 -71
-142 -123 -39 -276 53 -79 108 -188 120 -237 12 -47 19 -53 133 -120 56 -32
84 -43 101 -39 13 3 45 -1 72 -9 80 -24 96 12 44 102 -33 58 -62 82 -108 87
-35 5 -76 25 -68 33 8 8 -34 43 -51 43 -7 0 -13 4 -13 9 0 6 -14 30 -30 54
-16 25 -30 50 -30 56 0 6 -4 11 -10 11 -5 0 -10 9 -10 19 0 11 -5 23 -10 26
-10 6 -40 70 -40 85 0 11 24 19 103 36 90 19 162 50 182 80 8 13 29 31 46 40
17 8 29 17 27 19 -2 2 -32 -3 -68 -10 -86 -19 -99 -19 -74 0 19 14 19 14 -3
15 -12 0 -29 3 -38 6 -14 6 -11 10 14 20 26 11 31 18 31 47 0 40 12 53 60 60
105 16 170 44 170 72 0 7 17 20 38 28 l37 16 -41 0 c-52 1 -64 22 -26 50 34
24 27 31 -31 33 -52 3 -51 2 -37 29 9 16 7 19 -8 19 -10 0 -23 -5 -30 -12 -9
-9 -16 -6 -32 13 -11 13 -24 30 -30 37 -14 15 -72 16 -88 0 -17 -17 -16 3 2
47 10 23 28 41 58 56 l43 22 -19 -22 c-19 -21 -19 -21 5 -21 13 0 30 -9 37
-20 7 -11 17 -20 22 -20 17 0 11 29 -12 49 l-21 20 27 11 c42 15 69 13 62 -6
-5 -13 -1 -14 27 -8 17 5 61 9 97 9 132 3 173 5 167 11 -3 3 -23 8 -44 10 -46
5 -114 24 -127 36 -6 4 5 8 24 8 22 0 31 3 24 10 -13 13 -123 17 -149 6 -20
-9 -20 -9 -1 12 28 32 14 37 -39 13 -56 -25 -66 -26 -59 -6 4 8 1 15 -6 15 -6
0 -8 5 -5 10 3 6 1 10 -4 10 -20 0 -11 34 16 62 35 37 18 36 -33 -2 l-41 -29
8 47 c4 26 5 50 2 55 -2 4 2 7 10 7 8 0 17 7 21 15 3 8 1 15 -4 15 -6 0 -10 7
-10 17 0 9 -3 13 -7 9 -5 -4 -8 -15 -8 -24 -1 -18 -56 -112 -66 -112 -8 0 2
63 12 76 5 6 7 19 3 27 -4 12 2 18 21 23 20 5 33 19 47 50 30 69 35 55 11 -31
l-5 -20 16 20 c8 11 16 16 16 11 0 -5 7 -3 16 5 13 11 14 9 9 -14 -5 -18 -3
-27 5 -27 6 0 8 -4 5 -10 -3 -5 -2 -10 4 -10 8 0 71 93 71 106 0 3 -5 2 -11
-2 -8 -5 -8 -1 0 14 6 11 11 31 11 44 0 37 58 214 75 228 8 7 15 18 15 25 0 8
15 25 33 40 26 22 28 25 10 20 -21 -6 -28 2 -24 28 1 4 -8 2 -19 -5 -22 -14
-38 -5 -23 14 6 7 13 27 16 45 5 26 3 31 -8 27 -8 -4 -12 -11 -9 -16 4 -6 1
-9 -7 -6 -8 3 -14 13 -14 24 0 26 -91 61 -209 80 -134 22 -164 23 -237 13z"/>
<path d="M2708 1295 c-25 -19 -49 -31 -52 -28 -3 4 -6 1 -6 -5 0 -7 -11 -12
-24 -12 -13 0 -29 -7 -36 -15 -7 -8 -16 -13 -20 -10 -13 8 -17 -26 -8 -69 10
-43 5 -54 -15 -38 -10 8 -20 5 -41 -13 -21 -18 -37 -23 -72 -21 -61 3 -79 -24
-76 -116 2 -61 0 -68 -17 -68 -11 0 -38 22 -61 50 -48 58 -69 66 -39 16 20
-34 82 -96 126 -127 12 -8 35 -49 52 -93 l30 -78 -42 -51 c-40 -48 -156 -130
-266 -189 -42 -23 -56 -38 -82 -90 -18 -35 -40 -69 -50 -75 -42 -30 -57 -74
-55 -163 2 -78 3 -85 23 -88 27 -4 83 20 128 54 31 24 35 31 35 74 0 27 6 55
13 62 6 7 25 33 41 58 26 41 51 65 59 58 1 -2 20 16 41 40 21 23 42 42 47 42
21 0 189 116 189 131 0 9 7 20 16 23 21 8 39 8 31 -1 -8 -7 41 -63 54 -63 7 0
22 34 25 55 0 6 4 18 9 28 9 20 -23 51 -40 38 -5 -4 -23 -8 -39 -9 -16 -1 -35
-10 -42 -20 -12 -16 -13 -15 -14 5 0 13 15 36 35 54 19 18 35 38 35 46 0 7 7
13 15 13 8 0 15 -5 15 -11 0 -5 5 -7 10 -4 6 3 10 11 10 16 0 6 -4 7 -10 4 -5
-3 -10 -1 -10 4 0 6 7 11 15 11 8 0 15 9 15 20 0 18 -2 19 -20 8 -11 -7 -20
-17 -21 -23 0 -5 -13 -20 -30 -33 -27 -22 -29 -22 -35 -5 -3 10 -16 41 -29 69
-21 46 -22 51 -6 61 15 10 15 12 0 29 -32 38 -33 46 -5 42 21 -2 31 4 49 31
12 19 16 32 9 27 -7 -4 -12 -1 -12 8 0 18 20 32 21 14 1 -23 18 26 18 55 1 33
23 78 62 127 31 39 103 169 98 175 -3 2 -25 -12 -51 -30z"/>
<path d="M3292 1131 c-11 -7 -9 -18 12 -59 21 -41 24 -56 16 -77 -9 -23 -14
-25 -45 -19 -43 8 -46 -6 -10 -58 32 -47 47 -86 36 -93 -5 -3 -37 8 -72 25
-35 16 -65 28 -67 25 -11 -11 66 -100 119 -136 62 -42 209 -121 175 -94 -11 8
-14 15 -8 15 7 0 26 -13 44 -30 33 -32 43 -37 33 -17 -4 6 0 4 8 -6 8 -9 39
-26 70 -36 30 -11 64 -24 74 -29 11 -6 25 -7 33 -2 10 6 4 12 -23 24 -20 8
-37 17 -37 18 0 6 44 3 55 -3 6 -4 26 -10 45 -13 34 -7 34 -6 15 10 l-20 17
20 -7 c23 -9 25 -9 45 -6 8 1 -3 10 -25 21 -36 17 -37 19 -10 14 51 -9 55 -11
77 -29 20 -18 21 -18 14 0 -5 11 -9 24 -10 29 -1 6 -5 16 -10 23 -13 21 -2 23
40 7 l39 -16 -36 33 c-56 52 -75 66 -137 100 -94 53 -280 218 -359 321 -44 57
-69 69 -101 48z"/>
<path d="M1090 410 c-3 -96 -15 -138 -58 -188 -22 -27 -47 -65 -56 -86 -9 -21
-27 -51 -41 -68 -14 -16 -22 -34 -19 -40 7 -11 165 -5 198 8 31 12 15 24 -33
24 -40 0 -50 4 -54 19 -6 25 0 31 34 31 21 0 44 16 92 64 45 45 57 62 39 55
-22 -8 -23 -8 -12 6 10 12 10 15 -4 15 -9 0 -16 5 -16 10 0 15 38 50 55 50 8
0 15 5 15 10 0 13 -6 13 -40 -5 -17 -9 -30 -11 -30 -6 0 5 9 13 20 16 27 9 25
22 -5 29 -15 4 -25 13 -25 25 0 10 -9 21 -20 24 -11 3 -24 16 -29 29 -8 20
-10 17 -11 -22z"/>
<path d="M2595 315 c-6 -54 -12 -65 -58 -112 -28 -29 -48 -55 -44 -59 3 -4 -3
-20 -14 -35 -11 -16 -17 -34 -13 -40 4 -7 3 -9 -2 -6 -6 3 -15 -3 -22 -13 -10
-17 -7 -19 37 -25 103 -14 189 13 177 55 -3 8 -8 25 -11 36 -5 16 2 31 24 57
17 19 31 37 31 40 0 12 -32 16 -55 7 -28 -11 -30 -8 -15 21 6 11 7 19 1 19
-14 0 -23 31 -12 44 6 7 4 22 -4 41 -12 30 -12 30 -20 -30z"/>
</g>
</svg>
