<?xml version="1.0" encoding="UTF-8"?>
<svg width="342px" height="239px" viewBox="0 0 342 239" version="1.1" xmlns="http://www.w3.org/2000/svg" xmlns:xlink="http://www.w3.org/1999/xlink">
    <!-- Generator: Sketch 52.6 (67491) - http://www.bohemiancoding.com/sketch -->
    <title>Group 5</title>
    <desc>Created with Sketch.</desc>
    <defs>
        <path d="M66.1073218,1.27646493 C66.0658903,1.18419459 66.0241845,1.09203937 65.9822054,1 L85.1428937,6.10933414 L97.0055438,16.6535349 L103.28577,27.9006824 L109,37.6864798 C108.830188,37.7025837 108.660568,37.718979 108.491142,37.7356647 L109.665497,39.7258364 L118,46.8473989 C117.999407,46.8477893 117.998813,46.8481796 117.99822,46.84857 L118,46.8500912 C117.989786,46.8568108 117.979568,46.8635282 117.969347,46.8702436 L118,46.8964629 C117.922156,46.9477255 117.844114,46.9988652 117.765873,47.0498813 L119.6,48.6286685 L132.9,61.2821907 C134.460169,62.096644 136.215271,62.8093041 138.165306,63.4201712 C142.388212,64.7300928 147.518919,65.5666977 153.557427,65.9299858 C159.94495,66.3142714 171.654769,66.1071235 190.233174,65.6953296 C190.155666,65.5655685 190.077945,65.4359488 190.00001,65.3064711 L190,65.3064714 C194.228885,65.2143157 198.81653,65.1113277 203.7814,65.002064 C206.171878,64.9494558 209.591096,65.9025362 214.039054,67.8613051 L228.869742,76.244792 L243.700429,86.0255269 L255,91.6145182 L254.769667,92.0195926 L254.822292,92.0458818 C282.464622,132.267133 304.186499,158.771284 319.987923,171.558336 C325.097426,175.675277 329.588837,178.361663 333.462158,179.617496 C339.575476,181.599596 342.014388,183.650373 341.999936,185.560744 C342.035078,190.198694 327.549738,194.014471 316.092685,193.999959 C313.791197,194.002856 311.608155,193.853193 309.683547,193.526998 C302.500684,192.309598 293.287504,185.400439 284.018717,177.444635 C284.017573,177.38205 284.016481,177.319446 284.015442,177.256823 C277.559752,171.695189 271.08722,165.646988 265.271612,160.698784 C257.847136,154.381677 251.204656,136.393071 245.344173,106.732967 L243.58007,99.3978075 L241.377564,95.2062877 C241.377564,99.3880273 241.377564,102.88096 241.377564,105.685087 C241.377564,108.489214 240.47978,112.822547 238.684213,118.685086 L233.772624,127.798498 L230.264345,133.406751 L227.457723,138.313973 L223.949445,145.32429 L223.723976,145.849915 C223.718453,145.836447 223.712932,145.822978 223.707413,145.80951 L221.999857,149.782817 L221.999857,154.710423 L222.705748,163.86169 L226.235202,170.197183 L226.941093,187.795775 L231.882328,197.650987 L234,209.618029 L233.974619,209.736146 L234,209.878479 L231.884615,219.647959 L230.474359,223.83488 L224.833333,235 L224.795228,235 C223.571539,236.733037 222.542676,237.785966 221.708638,238.158788 C218.926045,239.402631 216.010865,238.899287 216.010865,238.899287 C216.010865,238.899287 212.719612,239.005525 211.579264,238.158788 C210.109283,237.067291 210.705606,234.960001 210.705606,234.960001 C210.705606,234.960001 210.705606,233.786762 210.705606,231.440283 L213.529169,226.512677 L221.999857,218.769297 L223.411639,212.433804 L223.411639,205.650809 L220.099815,193.851813 C220.137438,193.871006 220.175026,193.890243 220.212581,193.909524 L219.882185,192.723381 L218.700037,193.165464 C218.861544,193.241515 219.022477,193.318362 219.182826,193.396 L214.25641,195.224258 L210.730769,198.713359 L208.615385,199.411179 L197.333333,203.598099 L196.628205,204.993739 L193.102564,210.576299 L192.876938,210.509313 C186.584789,216.996673 182.58401,219.984649 180.8746,219.47324 C180.606031,219.392892 178.622169,225.808733 180.222521,230.79316 C181.151952,233.687945 170.519135,239.258134 166.313625,237.775776 C163.277821,236.705715 166.541186,228.754506 165.917038,228.688694 C164.230292,228.510838 171.165873,218.82815 171.061769,217.640251 C170.937866,216.226438 173.564117,212.379124 178.940523,206.098311 L186.705321,200.466761 L202.234917,192.723381 L209.999715,182.164226 L207.882043,175.124789 L205.764371,168.085352 L199.517746,161.855958 C199.076554,161.905275 198.634564,161.953291 198.19179,162 L195.9,159.698475 L193.847049,156.734821 C192.273954,155.346897 191.009719,153.968154 190.054345,152.598592 C189.07375,151.192874 188.034961,149.246959 186.937979,146.760846 L184.7,143.530085 L181.9,136.50035 L177,130.173589 L172.8,128.064669 L160.2,131.579536 L155.3,135.094404 L153.2,136.50035 L125.9,135.797377 L117.5,135.797377 L106.3,132.28251 L102.8,132.985483 L99.6821192,134.864158 L99.6821192,138.512033 C100.201483,141.237553 100.421838,143.229903 100.343183,144.489081 C100.264528,145.74826 99.3421869,149.144228 97.5761589,154.676984 L97.5761589,162.467781 C97.4894498,162.677261 97.4021199,162.886418 97.3141717,163.095251 L97.3141717,179.962406 L97.3141717,187.654135 L100.109018,195.345865 L105,203.037594 L103.602577,213.526316 L99.4103067,214.924812 L99.4103067,221.218045 L93.8206134,226.112782 L91.7244784,235.902256 L88.9296317,237.300752 L76.3528217,238 L73.5579751,235.902256 L79.8463801,225.413534 L87.5322084,217.721805 L88.9296317,199.541353 L88.23092,186.255639 L86.1347851,177.165414 L84.7373617,166.676692 L83.8989077,156.154523 C82.4700546,152.804526 81.5933751,150.191491 81.2688693,148.315419 C81.1609468,147.691484 81.0879925,146.998138 81.0500064,146.235379 C81.1138783,146.219834 81.1777992,146.20443 81.2417686,146.189168 C81.1560114,144.627524 81.2189097,142.770858 81.4304636,140.619171 L80.7985233,139.67073 C80.3042652,139.367188 79.8143132,139.061255 79.3287242,138.752965 L76.9,135.094404 L75.0869196,135.922032 C74.9650245,135.836484 74.843449,135.750776 74.7221944,135.66491 L69.4084321,138.062108 L59.5568561,138.062108 L53.9273841,142.252487 L49.0144694,143.377718 C48.5046002,143.433726 47.9929263,143.488403 47.4794843,143.541738 L44.9271523,144.131067 L35.8013245,145.535826 L36.5033113,150.452481 L41.4172185,160.285792 L42.8211921,163.797689 L45.6291391,171.523861 L63.1788079,182.059551 L69.4966887,193.297621 L65.986755,194 L57.5629139,191.892862 L44.9271523,186.976207 L40.7152318,183.46431 L39.3112583,179.250034 L35.0993377,166.607206 L28.781457,158.178654 L26.6754967,155.369137 L23.2196913,144.995923 C23.1433534,144.99731 23.0669928,144.998669 22.9906096,145 L27.1873921,137.363711 L27.2500059,137.341114 L27.3774834,137.107274 L42.8211921,131.48824 L52.6490066,122.357308 L57.2531683,118.408677 L56.6,111.193306 L51.7,104.866545 L51,93.6189697 L53.1,85.1832882 L54.5,78.1535536 L54.4959386,78.1168458 C54.4448786,78.1166063 54.3938137,78.116382 54.342744,78.1161729 L54.3431728,78.1140233 L53.6426225,71.7920577 L52.241522,64.7676513 L52,63.9200435 C52.13498,63.6878726 52.2718623,63.4562092 52.4106359,63.2250597 L51.2450331,59.1431684 L50.3570333,58.254672 C50.1638398,58.2184531 49.9710069,58.181699 49.7785389,58.1444124 L48.1423558,56.5116279 L45.3458494,53.7209302 L43.2484696,48.8372093 L40.6444719,49.4868565 L39.3112583,52.8217544 L39.0753439,52.9692834 L39.0537099,53.0232558 L36.579818,54.5662266 C36.5674626,54.5618315 36.5551096,54.557434 36.5427589,54.5530342 L33.6953642,56.3336511 L31.589404,64.0598237 L28.0794702,74.5955137 L27.3774834,81.619307 L27.2333035,81.7347154 L27.1873921,82.1903796 L20.1505521,87.7775524 L15.9284481,87.0791558 L15.2247641,78.6983966 L13,78.0359823 C13.7053646,78.0251309 14.4126312,78.0167158 15.1217261,78.0107616 L8.42384106,76.0002723 L5.61589404,74.5955137 L5.61589404,64.0598237 L4.91390728,52.8217544 L2.10596026,38.7741678 L0.701986755,28.9408571 L1.40397351,16.2980292 L0,12.0837532 L6.31788079,14.1908912 L12.3169063,9.95391681 C12.4611567,9.97682887 12.6053149,10.0000183 12.7493802,10.0234846 L18.0799119,6.27250048 L36.9563301,0 L60.7266346,0 L65.1351403,1.16453344 C65.110079,1.10964782 65.0849193,1.05480329 65.0596612,1 L66.1073218,1.27646493 Z" id="path-1"></path>
        <rect id="path-3" x="0" y="0" width="646" height="646"></rect>
        <polygon id="path-5" points="159.960829 166.684813 838.555872 168.482302 839.771308 625.839216 161.176265 624.041728"></polygon>
        <filter x="-19.9%" y="-29.4%" width="133.8%" height="150.1%" filterUnits="objectBoundingBox" id="filter-6">
            <feOffset dx="-20" dy="-20" in="SourceAlpha" result="shadowOffsetOuter1"></feOffset>
            <feGaussianBlur stdDeviation="35" in="shadowOffsetOuter1" result="shadowBlurOuter1"></feGaussianBlur>
            <feColorMatrix values="0 0 0 0 0   0 0 0 0 0   0 0 0 0 0  0 0 0 0.5 0" type="matrix" in="shadowBlurOuter1"></feColorMatrix>
        </filter>
        <polygon id="path-7" points="67.4285548 206.03035 768.63341 207.546658 769.633056 667.640292 68.4282008 666.123984"></polygon>
        <filter x="-19.2%" y="-29.2%" width="132.8%" height="149.8%" filterUnits="objectBoundingBox" id="filter-8">
            <feOffset dx="-20" dy="-20" in="SourceAlpha" result="shadowOffsetOuter1"></feOffset>
            <feGaussianBlur stdDeviation="35" in="shadowOffsetOuter1" result="shadowBlurOuter1"></feGaussianBlur>
            <feColorMatrix values="0 0 0 0 0   0 0 0 0 0   0 0 0 0 0  0 0 0 0.5 0" type="matrix" in="shadowBlurOuter1"></feColorMatrix>
        </filter>
        <polygon id="path-9" points="210.038884 299.253807 760.408494 300.076731 761.100287 760.896847 210.730677 760.073923"></polygon>
        <filter x="-24.5%" y="-29.2%" width="141.7%" height="149.8%" filterUnits="objectBoundingBox" id="filter-10">
            <feOffset dx="-20" dy="-20" in="SourceAlpha" result="shadowOffsetOuter1"></feOffset>
            <feGaussianBlur stdDeviation="35" in="shadowOffsetOuter1" result="shadowBlurOuter1"></feGaussianBlur>
            <feColorMatrix values="0 0 0 0 0   0 0 0 0 0   0 0 0 0 0  0 0 0 0.5 0" type="matrix" in="shadowBlurOuter1"></feColorMatrix>
        </filter>
        <polygon id="path-11" points="237.555212 350.76123 788.229076 351.264788 788.652545 812.419546 237.978681 811.915987"></polygon>
        <filter x="-24.5%" y="-29.2%" width="141.7%" height="149.8%" filterUnits="objectBoundingBox" id="filter-12">
            <feOffset dx="-20" dy="-20" in="SourceAlpha" result="shadowOffsetOuter1"></feOffset>
            <feGaussianBlur stdDeviation="35" in="shadowOffsetOuter1" result="shadowBlurOuter1"></feGaussianBlur>
            <feColorMatrix values="0 0 0 0 0   0 0 0 0 0   0 0 0 0 0  0 0 0 0.5 0" type="matrix" in="shadowBlurOuter1"></feColorMatrix>
        </filter>
        <polygon id="path-13" points="264.162056 387.024102 815.114038 387.229115 815.286469 848.702118 264.334487 848.497104"></polygon>
        <filter x="-24.5%" y="-29.2%" width="141.7%" height="149.8%" filterUnits="objectBoundingBox" id="filter-14">
            <feOffset dx="-20" dy="-20" in="SourceAlpha" result="shadowOffsetOuter1"></feOffset>
            <feGaussianBlur stdDeviation="35" in="shadowOffsetOuter1" result="shadowBlurOuter1"></feGaussianBlur>
            <feColorMatrix values="0 0 0 0 0   0 0 0 0 0   0 0 0 0 0  0 0 0 0.5 0" type="matrix" in="shadowBlurOuter1"></feColorMatrix>
        </filter>
        <polygon id="path-15" points="291.083757 414.599449 993.106821 414.145467 992.807191 875.350792 290.784128 875.804775"></polygon>
        <filter x="-19.2%" y="-29.2%" width="132.7%" height="149.8%" filterUnits="objectBoundingBox" id="filter-16">
            <feOffset dx="-20" dy="-20" in="SourceAlpha" result="shadowOffsetOuter1"></feOffset>
            <feGaussianBlur stdDeviation="35" in="shadowOffsetOuter1" result="shadowBlurOuter1"></feGaussianBlur>
            <feColorMatrix values="0 0 0 0 0   0 0 0 0 0   0 0 0 0 0  0 0 0 0.5 0" type="matrix" in="shadowBlurOuter1"></feColorMatrix>
        </filter>
        <polygon id="path-17" points="224.009253 446.906295 1150.24579 445.383284 1149.4845 905.449041 223.247964 906.972052"></polygon>
        <filter x="-14.6%" y="-29.2%" width="124.8%" height="149.8%" filterUnits="objectBoundingBox" id="filter-18">
            <feOffset dx="-20" dy="-20" in="SourceAlpha" result="shadowOffsetOuter1"></feOffset>
            <feGaussianBlur stdDeviation="35" in="shadowOffsetOuter1" result="shadowBlurOuter1"></feGaussianBlur>
            <feColorMatrix values="0 0 0 0 0   0 0 0 0 0   0 0 0 0 0  0 0 0 0.5 0" type="matrix" in="shadowBlurOuter1"></feColorMatrix>
        </filter>
        <polygon id="path-19" points="361.621596 481.514204 1166.6913 479.467955 1165.51736 939.016051 360.447657 941.0623"></polygon>
        <filter x="-16.7%" y="-29.2%" width="128.5%" height="149.8%" filterUnits="objectBoundingBox" id="filter-20">
            <feOffset dx="-20" dy="-20" in="SourceAlpha" result="shadowOffsetOuter1"></feOffset>
            <feGaussianBlur stdDeviation="35" in="shadowOffsetOuter1" result="shadowBlurOuter1"></feGaussianBlur>
            <feColorMatrix values="0 0 0 0 0   0 0 0 0 0   0 0 0 0 0  0 0 0 0.5 0" type="matrix" in="shadowBlurOuter1"></feColorMatrix>
        </filter>
        <polygon id="path-21" points="566.717826 386.241727 1338.6276 384.256109 1337.44229 843.930236 565.532519 845.915853"></polygon>
        <filter x="-17.5%" y="-29.2%" width="129.8%" height="149.8%" filterUnits="objectBoundingBox" id="filter-22">
            <feOffset dx="-20" dy="-20" in="SourceAlpha" result="shadowOffsetOuter1"></feOffset>
            <feGaussianBlur stdDeviation="35" in="shadowOffsetOuter1" result="shadowBlurOuter1"></feGaussianBlur>
            <feColorMatrix values="0 0 0 0 0   0 0 0 0 0   0 0 0 0 0  0 0 0 0.5 0" type="matrix" in="shadowBlurOuter1"></feColorMatrix>
        </filter>
    </defs>
    <g id="Page-1" stroke="none" stroke-width="1" fill="none" fill-rule="evenodd">
        <g id="Group-5">
            <mask id="mask-2" fill="white">
                <use xlink:href="#path-1"></use>
            </mask>
            <use id="Combined-Shape" fill="#000000" fill-rule="nonzero" xlink:href="#path-1"></use>
            <g id="Group-2" mask="url(#mask-2)">
                <g transform="translate(-202.000000, -213.000000)">
                    <mask id="mask-4" fill="white">
                        <use xlink:href="#path-3"></use>
                    </mask>
                    <use id="Rectangle" stroke="none" fill="#000000" fill-rule="nonzero" xlink:href="#path-3"></use>
                    <g id="Group" stroke="none" stroke-width="1" fill="none" fill-rule="evenodd" mask="url(#mask-4)">
                        <g transform="translate(-323.000000, -102.000000)" fill-rule="nonzero" id="Rectangle">
                            <g transform="translate(499.866068, 396.262015) rotate(41.000000) translate(-499.866068, -396.262015) ">
                                <use fill="black" fill-opacity="1" filter="url(#filter-6)" xlink:href="#path-5"></use>
                                <use fill="#CDCDCD" xlink:href="#path-5"></use>
                            </g>
                            <g transform="translate(418.530805, 436.835321) rotate(27.000000) translate(-418.530805, -436.835321) ">
                                <use fill="black" fill-opacity="1" filter="url(#filter-8)" xlink:href="#path-7"></use>
                                <use fill="#146AA6" xlink:href="#path-7"></use>
                            </g>
                            <g transform="translate(485.569586, 530.075327) rotate(17.000000) translate(-485.569586, -530.075327) ">
                                <use fill="black" fill-opacity="1" filter="url(#filter-10)" xlink:href="#path-9"></use>
                                <use fill="#C22640" xlink:href="#path-9"></use>
                            </g>
                            <g transform="translate(513.103878, 581.590388) rotate(10.000000) translate(-513.103878, -581.590388) ">
                                <use fill="black" fill-opacity="1" filter="url(#filter-12)" xlink:href="#path-11"></use>
                                <use fill="#231B2B" xlink:href="#path-11"></use>
                            </g>
                            <g transform="translate(539.724262, 617.863110) rotate(4.000000) translate(-539.724262, -617.863110) ">
                                <use fill="black" fill-opacity="1" filter="url(#filter-14)" xlink:href="#path-13"></use>
                                <use fill="#87A6E4" xlink:href="#path-13"></use>
                            </g>
                            <g transform="translate(641.945474, 644.975121) rotate(-7.000000) translate(-641.945474, -644.975121) ">
                                <use fill="black" fill-opacity="1" filter="url(#filter-16)" xlink:href="#path-15"></use>
                                <use fill="#0E92EA" xlink:href="#path-15"></use>
                            </g>
                            <g transform="translate(686.746875, 676.177668) rotate(-19.000000) translate(-686.746875, -676.177668) ">
                                <use fill="black" fill-opacity="1" filter="url(#filter-18)" xlink:href="#path-17"></use>
                                <use fill="#FF426B" xlink:href="#path-17"></use>
                            </g>
                            <g transform="translate(763.569476, 710.265127) rotate(-36.000000) translate(-763.569476, -710.265127) ">
                                <use fill="black" fill-opacity="1" filter="url(#filter-20)" xlink:href="#path-19"></use>
                                <use fill="#DEE5E1" xlink:href="#path-19"></use>
                            </g>
                            <g transform="translate(952.080059, 615.085981) rotate(-53.000000) translate(-952.080059, -615.085981) ">
                                <use fill="black" fill-opacity="1" filter="url(#filter-22)" xlink:href="#path-21"></use>
                                <use fill="#FF3C62" xlink:href="#path-21"></use>
                            </g>
                        </g>
                    </g>
                </g>
            </g>
        </g>
    </g>
</svg>