<?xml version="1.0" encoding="UTF-8"?>
<svg width="323px" height="545px" viewBox="0 0 323 545" version="1.1" xmlns="http://www.w3.org/2000/svg" xmlns:xlink="http://www.w3.org/1999/xlink">
    <!-- Generator: Sketch 52.6 (67491) - http://www.bohemiancoding.com/sketch -->
    <title>Combined Shape</title>
    <desc>Created with Sketch.</desc>
    <g id="Page-1" stroke="none" stroke-width="1" fill="none" fill-rule="evenodd">
        <path d="M32.0816433,171.804442 L41.8237129,174.494139 C42.2716242,165.53722 42.4955798,160.274264 42.4955798,158.705274 C42.4955798,156.351789 48.5423817,145.962792 57.9485179,143.581714 C64.2192754,141.99433 76.3128792,146.807005 94.2293292,158.019741 C96.0209742,151.669816 98.1485526,147.186987 100.612064,144.571252 C104.307332,140.64765 114.049402,135.942178 118.75247,125.743368 C120.884537,121.119889 125.455711,112.67289 128.830473,100.863664 C129.889208,97.1588575 131.008986,90.8828961 132.189808,82.0357804 C129.054429,83.1564878 126.143006,83.2685585 123.455538,82.3719926 C118.75247,81.0271437 108.0026,77.6650216 102.627665,77.6650216 C97.2527301,77.6650216 96.5808632,84.3892659 90.1981279,84.3892659 C85.9429711,84.3892659 81.5758364,81.1392145 77.0967239,74.6391117 L77.0967239,56.1474399 L123.455538,33.6212215 C125.695094,27.5694016 128.606518,23.4227843 132.189808,21.1813695 C137.564743,17.8192474 148.314613,17.4830352 148.314613,17.4830352 C148.314613,17.4830352 146.657746,11.6728021 151.338014,6.05181986 C152.534567,4.61476429 155.557968,2.597491 160.408216,0 L160.408216,13.7847008 C163.319639,9.52601275 167.126885,5.82767839 171.829953,2.68969772 C176.868955,13.4484886 174.181487,22.5262184 170.150286,29.9228871 C179.892356,29.9228871 200.720229,46.3972856 203.407696,59.509562 C208.171904,82.7543484 212.98695,97.2114736 217.852834,102.880938 L206.095164,96.6470604 C207.662853,100.354696 208.446698,107.227291 208.446698,117.264846 C208.446698,132.321178 211.470099,136.702956 220.540302,150.551474 C217.180967,151.496272 213.149766,151.023873 208.446698,149.134276 C206.879008,150.478696 206.879008,158.317034 208.446698,172.649291 C210.014387,186.981548 213.821633,199.27943 219.868435,209.542938 C211.134165,203.932068 204.415497,196.956106 199.712428,188.615052 C199.712428,199.03466 201.605563,205.667738 212.477899,236.480365 C224.907436,271.70616 258.395156,277.63253 264.883515,301.246144 C275.969319,341.59161 285.711388,331.963183 306.203328,348.611724 C326.695268,365.260265 323.671867,404.799506 319.304732,430.015423 C316.393309,446.826033 317.625065,460.834876 323,472.041949 C319.76586,468.269017 316.854436,465.131036 314.265731,462.628007 C311.677025,460.124979 309.213513,456.650786 306.875195,452.205429 C305.531461,458.605813 308.442884,467.907684 315.609464,480.111043 C295.453458,468.343615 291.422257,444.472548 289.406656,421.587598 C290.414457,415.89451 285.711388,412.8686 285.711388,426.317088 C285.711388,431.244124 287.758686,439.658042 287.055122,440.101789 C285.838288,440.869263 277.648986,424.972239 280.00052,413.204812 C282.352054,401.437384 290.116726,384.008378 289.406656,370.505861 C288.958745,361.988484 284.479633,352.12626 275.969319,340.919186 C276.193274,352.539404 275.40943,363.333585 273.617785,373.301727 C270.930317,388.25394 264.211648,391.545373 260.180447,410.178902 C256.149246,428.812431 273.617785,447.83467 273.617785,447.83467 C273.617785,447.83467 268.24285,465.615021 260.180447,480.111043 C252.118045,494.607064 247.75091,526.172116 245.399376,528.525601 C243.047842,530.879087 241.032241,529.534238 238.680707,532.89636 C237.113018,535.137775 237.896863,536.258482 241.032241,536.258482 L238.680707,545 L228.938638,545 L213.485699,541.97409 L215.837233,536.258482 L225.579303,526.172116 C223.477162,524.861629 223.477162,522.947432 225.579303,520.429523 C233.977639,510.370142 241.368175,488.838563 243.383775,480.440256 C245.399376,472.041949 245.399376,460.946946 245.399376,460.946946 C245.399376,460.946946 243.383775,447.83467 243.383775,445.605054 C243.383775,443.375437 238.344774,432.545093 235.321373,430.015423 C233.305772,428.328976 226.027214,417.538072 213.485699,397.642711 C212.141966,400.396635 210.462298,402.782233 208.446698,404.799506 C199.040562,415.991568 200.048362,427.310712 211.470099,438.75694 C214.829433,442.567345 216.285145,445.593255 215.837233,447.83467 C215.165367,451.196792 207.438898,457.706551 199.040562,471.369525 C193.441671,480.478174 187.84278,492.693885 182.24389,508.016656 L174.517421,511.378779 L176.533021,517.530968 L172.837754,523.386079 C167.462819,524.12273 162.983706,524.491055 159.400416,524.491055 C155.817126,524.491055 151.673947,523.137211 146.970879,520.429523 L152.345814,512.427811 L163.095684,502.301049 L163.095684,496.249229 C169.590397,488.743788 174.965332,482.533533 179.220489,477.618461 C185.603224,470.245854 187.282891,454.142433 187.282891,447.83467 C187.282891,441.526906 180.900156,427.661937 176.533021,421.587598 C172.165887,415.51326 161.080083,398.177757 167.798752,380.339737 C172.277864,368.447724 173.957532,354.074762 172.837754,337.220851 C150.442191,316.941434 135.101231,301.923955 126.814873,292.168415 C118.528514,282.412874 108.450511,262.464283 96.5808632,232.32264 C92.1017507,230.482321 88.1825273,228.592189 84.8231929,226.652245 C81.4638586,224.712301 73.5134339,219.093693 60.9719189,209.796422 L54.2532501,211.477483 L60.9719189,222.390429 C65.2270757,220.270386 68.4744323,219.210364 70.7139886,219.210364 C74.0733229,219.210364 77.0967239,229.562161 77.0967239,234.676126 C77.0967239,239.790091 79.4482579,247.788402 77.0967239,249.133251 C74.7451898,250.4781 67.3546542,245.434917 67.3546542,245.434917 C67.3546542,245.434917 47.8705148,232.32264 44.5111804,229.562161 C42.2716242,227.721842 41.0398683,223.374677 40.8159126,216.520666 L40.8159126,200.046268 C40.8159126,194.891014 38.1284451,193.215116 32.7535101,195.018575 C24.6911076,197.723763 22.3395736,229.562161 22.3395736,229.832526 C22.3395736,230.102892 22.3395736,236.758349 18.9802392,236.758349 C15.6209048,236.758349 18.9802392,247.558359 22.3395736,247.558359 C25.698908,247.558359 34.0972439,250.4781 34.0972439,254.596369 C34.0972439,258.714637 30.0660426,279.728563 25.698908,279.728563 C22.7874848,279.728563 19.4335384,275.086377 15.6370687,265.802005 L1.51170047,243.008214 C-0.503900156,234.044179 -0.503900156,228.348621 1.51170047,225.921539 C4.5351014,222.280918 14.6131045,190.225341 18.9802392,180.611625 C21.8916623,174.202482 26.258797,171.266754 32.0816433,171.804442 Z M78,182 C69.4787879,171.396079 64.1818182,166.414315 62.1090909,167.054708 C60.0363636,167.695101 59,171.518315 59,178.524351 L78,182 Z" id="Combined-Shape" fill="#000000" fill-rule="nonzero"></path>
    </g>
</svg>